<svg xmlns="http://www.w3.org/2000/svg" id="export" class="canvas" preserveAspectRatio="xMidYMid meet" style="" width="143" height="1267"><rect id="background" fill="#fff" pointer-events="all" width="143" height="1267"/><g id="origin" transform="translate(6.478558349609376, 6.478558349609376) scale(1)"><g id="clusters" class="clusters"/><g id="edge-paths" class="edge-paths" style="pointer-events: none;"><defs><marker id="arrowhead" viewBox="0 0 10 10" refX="9" refY="5" markerUnits="strokeWidth" markerWidth="8" markerHeight="6" orient="auto" style="fill: rgb(0, 0, 0);"><path d="M 0 0 L 10 5 L 0 10 L 4 5 z" style="stroke-width: 1px;"/></marker><marker id="arrowhead-select" viewBox="0 0 10 10" refX="9" refY="5" markerUnits="strokeWidth" markerWidth="8" markerHeight="6" orient="auto" style="fill: rgba(220, 0, 0, 0.9);"><path d="M 0 0 L 10 5 L 0 10 L 4 5 z" style="stroke-width: 1px;"/></marker><marker id="arrowhead-hover" viewBox="0 0 10 10" refX="9" refY="5" markerUnits="strokeWidth" markerWidth="8" markerHeight="6" orient="auto" style="fill: rgba(220, 0, 0, 0.9);"><path d="M 0 0 L 10 5 L 0 10 L 4 5 z" style="stroke-width: 1px;"/></marker></defs><path id="edge-conv2d_input" class="edge-path" d="M60.8303337097168,22.651999473571777L60.8303337097168,24.318666140238445C60.8303337097168,25.98533280690511,60.8303337097168,29.318666140238445,60.8303337097168,34.59533278147379C60.8303337097168,39.871999422709145,60.8303337097168,47.09199937184652,60.8303337097168,54.31199932098389C60.8303337097168,61.531999270121254,60.8303337097168,68.75199921925862,60.8303337097168,74.02866586049397C60.8303337097168,79.30533250172932,60.8303337097168,82.63866583506267,60.8303337097168,84.30533250172932L60.8303337097168,85.971999168396" style="stroke: rgb(0, 0, 0); stroke-width: 1px; fill: none; marker-end: url(&quot;#arrowhead&quot;);"/><path id="edge-conv2d" class="edge-path" d="M60.8303337097168,131.27599811553955L60.8303337097168,132.9426647822062C60.8303337097168,134.6093314488729,60.8303337097168,137.9426647822062,60.8303337097168,141.27599811553955C60.8303337097168,144.6093314488729,60.8303337097168,147.9426647822062,60.8303337097168,149.6093314488729L60.8303337097168,151.27599811553955" style="stroke: rgb(0, 0, 0); stroke-width: 1px; fill: none; marker-end: url(&quot;#arrowhead&quot;);"/><path id="edge-batch_normalization" class="edge-path" d="M60.8303337097168,173.92799758911133L60.8303337097168,175.59466425577799C60.8303337097168,177.26133092244467,60.8303337097168,180.59466425577799,60.8303337097168,183.92799758911133C60.8303337097168,187.26133092244467,60.8303337097168,190.59466425577799,60.8303337097168,192.26133092244467L60.8303337097168,193.92799758911133" style="stroke: rgb(0, 0, 0); stroke-width: 1px; fill: none; marker-end: url(&quot;#arrowhead&quot;);"/><path id="edge-depthwise_conv2d" class="edge-path" d="M60.8303337097168,239.23199653625488L60.8303337097168,240.89866320292154C60.8303337097168,242.56532986958823,60.8303337097168,245.89866320292154,60.8303337097168,249.23199653625488C60.8303337097168,252.56532986958823,60.8303337097168,255.89866320292154,60.8303337097168,257.5653298695882L60.8303337097168,259.2319965362549" style="stroke: rgb(0, 0, 0); stroke-width: 1px; fill: none; marker-end: url(&quot;#arrowhead&quot;);"/><path id="edge-batch_normalization_1" class="edge-path" d="M60.8303337097168,281.88399600982666L60.8303337097168,283.55066267649335C60.8303337097168,285.21732934316,60.8303337097168,288.55066267649335,60.8303337097168,291.88399600982666C60.8303337097168,295.21732934316,60.8303337097168,298.55066267649335,60.8303337097168,300.21732934316L60.8303337097168,301.88399600982666" style="stroke: rgb(0, 0, 0); stroke-width: 1px; fill: none; marker-end: url(&quot;#arrowhead&quot;);"/><path id="edge-conv2d_1" class="edge-path" d="M60.8303337097168,347.1879949569702L60.8303337097168,348.8546616236369C60.8303337097168,350.52132829030353,60.8303337097168,353.8546616236369,60.8303337097168,357.1879949569702C60.8303337097168,360.52132829030353,60.8303337097168,363.8546616236369,60.8303337097168,365.52132829030353L60.8303337097168,367.1879949569702" style="stroke: rgb(0, 0, 0); stroke-width: 1px; fill: none; marker-end: url(&quot;#arrowhead&quot;);"/><path id="edge-max_pooling2d" class="edge-path" d="M60.8303337097168,389.839994430542L60.8303337097168,391.5066610972087C60.8303337097168,393.1733277638753,60.8303337097168,396.5066610972087,60.8303337097168,399.839994430542C60.8303337097168,403.1733277638753,60.8303337097168,406.5066610972087,60.8303337097168,408.1733277638753L60.8303337097168,409.839994430542" style="stroke: rgb(0, 0, 0); stroke-width: 1px; fill: none; marker-end: url(&quot;#arrowhead&quot;);"/><path id="edge-conv2d_2" class="edge-path" d="M60.8303337097168,455.14399337768555L60.8303337097168,456.81066004435223C60.8303337097168,458.47732671101886,60.8303337097168,461.81066004435223,60.8303337097168,465.14399337768555C60.8303337097168,468.47732671101886,60.8303337097168,471.81066004435223,60.8303337097168,473.47732671101886L60.8303337097168,475.14399337768555" style="stroke: rgb(0, 0, 0); stroke-width: 1px; fill: none; marker-end: url(&quot;#arrowhead&quot;);"/><path id="edge-batch_normalization_2" class="edge-path" d="M60.8303337097168,497.7959928512573L60.8303337097168,499.462659517924C60.8303337097168,501.12932618459064,60.8303337097168,504.462659517924,60.8303337097168,507.7959928512573C60.8303337097168,511.12932618459064,60.8303337097168,514.462659517924,60.8303337097168,516.1293261845907L60.8303337097168,517.7959928512573" style="stroke: rgb(0, 0, 0); stroke-width: 1px; fill: none; marker-end: url(&quot;#arrowhead&quot;);"/><path id="edge-depthwise_conv2d_1" class="edge-path" d="M60.8303337097168,563.0999917984009L60.8303337097168,564.7666584650675C60.8303337097168,566.4333251317343,60.8303337097168,569.7666584650675,60.8303337097168,573.0999917984009C60.8303337097168,576.4333251317343,60.8303337097168,579.7666584650675,60.8303337097168,581.4333251317343L60.8303337097168,583.0999917984009" style="stroke: rgb(0, 0, 0); stroke-width: 1px; fill: none; marker-end: url(&quot;#arrowhead&quot;);"/><path id="edge-batch_normalization_3" class="edge-path" d="M60.8303337097168,605.7519912719727L60.8303337097168,607.4186579386393C60.8303337097168,609.085324605306,60.8303337097168,612.4186579386393,60.8303337097168,615.7519912719727C60.8303337097168,619.085324605306,60.8303337097168,622.4186579386393,60.8303337097168,624.085324605306L60.8303337097168,625.7519912719727" style="stroke: rgb(0, 0, 0); stroke-width: 1px; fill: none; marker-end: url(&quot;#arrowhead&quot;);"/><path id="edge-conv2d_3" class="edge-path" d="M60.8303337097168,671.0559902191162L60.8303337097168,672.7226568857828C60.8303337097168,674.3893235524496,60.8303337097168,677.7226568857828,60.8303337097168,681.0559902191162C60.8303337097168,684.3893235524496,60.8303337097168,687.7226568857828,60.8303337097168,689.3893235524496L60.8303337097168,691.0559902191162" style="stroke: rgb(0, 0, 0); stroke-width: 1px; fill: none; marker-end: url(&quot;#arrowhead&quot;);"/><path id="edge-max_pooling2d_1" class="edge-path" d="M60.8303337097168,713.707989692688L60.8303337097168,715.3746563593546C60.8303337097168,717.0413230260214,60.8303337097168,720.3746563593546,60.8303337097168,723.707989692688C60.8303337097168,727.0413230260214,60.8303337097168,730.3746563593546,60.8303337097168,732.0413230260214L60.8303337097168,733.707989692688" style="stroke: rgb(0, 0, 0); stroke-width: 1px; fill: none; marker-end: url(&quot;#arrowhead&quot;);"/><path id="edge-conv2d_4" class="edge-path" d="M60.8303337097168,779.0119886398315L60.8303337097168,780.6786553064982C60.8303337097168,782.3453219731649,60.8303337097168,785.6786553064982,60.8303337097168,789.0119886398315C60.8303337097168,792.3453219731649,60.8303337097168,795.6786553064982,60.8303337097168,797.3453219731649L60.8303337097168,799.0119886398315" style="stroke: rgb(0, 0, 0); stroke-width: 1px; fill: none; marker-end: url(&quot;#arrowhead&quot;);"/><path id="edge-batch_normalization_4" class="edge-path" d="M60.8303337097168,821.6639881134033L60.8303337097168,823.33065478007C60.8303337097168,824.9973214467367,60.8303337097168,828.33065478007,60.8303337097168,831.6639881134033C60.8303337097168,834.9973214467367,60.8303337097168,838.33065478007,60.8303337097168,839.9973214467367L60.8303337097168,841.6639881134033" style="stroke: rgb(0, 0, 0); stroke-width: 1px; fill: none; marker-end: url(&quot;#arrowhead&quot;);"/><path id="edge-depthwise_conv2d_2" class="edge-path" d="M60.8303337097168,886.9679870605469L60.8303337097168,888.6346537272135C60.8303337097168,890.3013203938802,60.8303337097168,893.6346537272135,60.8303337097168,896.9679870605469C60.8303337097168,900.3013203938802,60.8303337097168,903.6346537272135,60.8303337097168,905.3013203938802L60.8303337097168,906.9679870605469" style="stroke: rgb(0, 0, 0); stroke-width: 1px; fill: none; marker-end: url(&quot;#arrowhead&quot;);"/><path id="edge-batch_normalization_5" class="edge-path" d="M60.8303337097168,929.6199865341187L60.8303337097168,931.2866532007853C60.8303337097168,932.953319867452,60.8303337097168,936.2866532007853,60.8303337097168,939.6199865341187C60.8303337097168,942.953319867452,60.8303337097168,946.2866532007853,60.8303337097168,947.953319867452L60.8303337097168,949.6199865341187" style="stroke: rgb(0, 0, 0); stroke-width: 1px; fill: none; marker-end: url(&quot;#arrowhead&quot;);"/><path id="edge-conv2d_5" class="edge-path" d="M60.8303337097168,994.9239854812622L60.8303337097168,996.5906521479288C60.8303337097168,998.2573188145956,60.8303337097168,1001.5906521479288,60.8303337097168,1004.9239854812622C60.8303337097168,1008.2573188145956,60.8303337097168,1011.5906521479288,60.8303337097168,1013.2573188145956L60.8303337097168,1014.9239854812622" style="stroke: rgb(0, 0, 0); stroke-width: 1px; fill: none; marker-end: url(&quot;#arrowhead&quot;);"/><path id="edge-global_average_pooling2d" class="edge-path" d="M60.8303337097168,1037.575984954834L60.8303337097168,1039.2426516215007C60.8303337097168,1040.9093182881672,60.8303337097168,1044.2426516215007,60.8303337097168,1047.575984954834C60.8303337097168,1050.9093182881672,60.8303337097168,1054.2426516215007,60.8303337097168,1055.9093182881672L60.8303337097168,1057.575984954834" style="stroke: rgb(0, 0, 0); stroke-width: 1px; fill: none; marker-end: url(&quot;#arrowhead&quot;);"/><path id="edge-dense" class="edge-path" d="M60.8303337097168,1102.8799839019775L60.8303337097168,1104.5466505686443C60.8303337097168,1106.2133172353108,60.8303337097168,1109.5466505686443,60.8303337097168,1112.8799839019775C60.8303337097168,1116.2133172353108,60.8303337097168,1119.5466505686443,60.8303337097168,1121.2133172353108L60.8303337097168,1122.8799839019775" style="stroke: rgb(0, 0, 0); stroke-width: 1px; fill: none; marker-end: url(&quot;#arrowhead&quot;);"/><path id="edge-dropout" class="edge-path" d="M60.8303337097168,1145.5319833755493L60.8303337097168,1147.198650042216C60.8303337097168,1148.8653167088826,60.8303337097168,1152.198650042216,60.8303337097168,1155.5319833755493C60.8303337097168,1158.8653167088826,60.8303337097168,1162.198650042216,60.8303337097168,1163.8653167088826L60.8303337097168,1165.5319833755493" style="stroke: rgb(0, 0, 0); stroke-width: 1px; fill: none; marker-end: url(&quot;#arrowhead&quot;);"/><path id="edge-dense_1" class="edge-path" d="M60.8303337097168,1210.8359823226929L60.8303337097168,1212.5026489893596C60.8303337097168,1214.1693156560261,60.8303337097168,1217.5026489893596,60.8303337097168,1220.8359823226929C60.8303337097168,1224.1693156560261,60.8303337097168,1227.5026489893596,60.8303337097168,1229.1693156560261L60.8303337097168,1230.8359823226929" style="stroke: rgb(0, 0, 0); stroke-width: 1px; fill: none; marker-end: url(&quot;#arrowhead&quot;);"/></g><g id="edge-labels" class="edge-labels"><text style="opacity: 1; font-family: -apple-system, BlinkMacSystemFont, &quot;Segoe WPC&quot;, &quot;Segoe UI&quot;, &quot;Ubuntu&quot;, &quot;Droid Sans&quot;, sans-serif, &quot;PingFang SC&quot;; font-size: 10px;" class="edge-label" id="edge-label-edge-conv2d_input" transform="translate(65.8303337097168,47.65199947357178)"><tspan xml:space="preserve" dy="1em" x="1">?×128×128×3</tspan></text></g><g id="nodes" class="nodes"><g id="input-name-conv2d_input" class="node graph-input" style="" transform="translate(21.180042266845703,0)"><g class="node-item graph-item-input" transform="translate(0,0)"><path d="M5,0h69.30058288574219a5,5 0 0 1 5,5v12.651999473571777a5,5 0 0 1 -5,5h-69.30058288574219a5,5 0 0 1 -5,-5v-12.651999473571777a5,5 0 0 1 5,-5z" style="stroke: rgb(0, 0, 0); fill: rgb(238, 238, 238); stroke-width: 0px;"/><text x="6" y="15.880000114440918" style="font-family: -apple-system, BlinkMacSystemFont, &quot;Segoe WPC&quot;, &quot;Segoe UI&quot;, &quot;Ubuntu&quot;, &quot;Droid Sans&quot;, sans-serif, &quot;PingFang SC&quot;; font-size: 11px; text-rendering: geometricprecision; user-select: none;">conv2d_input</text><title>float32[?,128,128,3]</title></g><path class="node node-border" d="M5,0h69.30058288574219a5,5 0 0 1 5,5v12.651999473571777a5,5 0 0 1 -5,5h-69.30058288574219a5,5 0 0 1 -5,-5v-12.651999473571777a5,5 0 0 1 5,-5z" style="stroke: rgb(51, 51, 51); fill: none; stroke-width: 1px;"/></g><g id="node-name-conv2d" class="node graph-node" style="" transform="translate(29.58358383178711,85.971999168396)"><g class="node-item node-item-type node-item-type-layer" transform="translate(0,0)"><path d="M5,0h52.493499755859375a5,5 0 0 1 5,5v17.651999473571777a0,0 0 0 1 0,0h-62.493499755859375a0,0 0 0 1 0,0v-17.651999473571777a5,5 0 0 1 5,-5z" style="stroke: rgb(0, 0, 0); fill: rgb(51, 85, 136); stroke-width: 0px;"/><text x="6" y="15.880000114440918" style="font-family: -apple-system, BlinkMacSystemFont, &quot;Segoe WPC&quot;, &quot;Segoe UI&quot;, &quot;Ubuntu&quot;, &quot;Droid Sans&quot;, sans-serif, &quot;PingFang SC&quot;; font-size: 11px; text-rendering: geometricprecision; user-select: none; fill: rgb(255, 255, 255);">Conv2D</text><title>conv2d</title></g><g class="node-item node-item-type node-item-type-activation" transform="translate(0,22.651999473571777)"><path d="M0,0h62.493499755859375a0,0 0 0 1 0,0v17.651999473571777a5,5 0 0 1 -5,5h-52.493499755859375a5,5 0 0 1 -5,-5v-17.651999473571777a0,0 0 0 1 0,0z" style="stroke: rgb(0, 0, 0); fill: rgb(112, 41, 33); stroke-width: 0px;"/><text x="6" y="15.880000114440918" style="font-family: -apple-system, BlinkMacSystemFont, &quot;Segoe WPC&quot;, &quot;Segoe UI&quot;, &quot;Ubuntu&quot;, &quot;Droid Sans&quot;, sans-serif, &quot;PingFang SC&quot;; font-size: 11px; text-rendering: geometricprecision; user-select: none; fill: rgb(255, 255, 255);">Activation</text></g><line class="node" x1="0" x2="62.493499755859375" y1="22.651999473571777" y2="22.651999473571777" style="stroke: rgb(51, 51, 51); fill: none; stroke-width: 1px;"/><path class="node node-border" d="M5,0h52.493499755859375a5,5 0 0 1 5,5v35.303998947143555a5,5 0 0 1 -5,5h-52.493499755859375a5,5 0 0 1 -5,-5v-35.303998947143555a5,5 0 0 1 5,-5z" style="stroke: rgb(51, 51, 51); fill: none; stroke-width: 1px;"/></g><g id="node-name-batch_normalization" class="node graph-node" style="" transform="translate(6.098583221435547,151.27599811553955)"><g class="node-item node-item-type node-item-type-normalization" transform="translate(0,0)"><path d="M5,0h99.4635009765625a5,5 0 0 1 5,5v12.651999473571777a5,5 0 0 1 -5,5h-99.4635009765625a5,5 0 0 1 -5,-5v-12.651999473571777a5,5 0 0 1 5,-5z" style="stroke: rgb(0, 0, 0); fill: rgb(51, 85, 68); stroke-width: 0px;"/><text x="6" y="15.880000114440918" style="font-family: -apple-system, BlinkMacSystemFont, &quot;Segoe WPC&quot;, &quot;Segoe UI&quot;, &quot;Ubuntu&quot;, &quot;Droid Sans&quot;, sans-serif, &quot;PingFang SC&quot;; font-size: 11px; text-rendering: geometricprecision; user-select: none; fill: rgb(255, 255, 255);">BatchNormalization</text><title>batch_normalization</title></g><path class="node node-border" d="M5,0h99.4635009765625a5,5 0 0 1 5,5v12.651999473571777a5,5 0 0 1 -5,5h-99.4635009765625a5,5 0 0 1 -5,-5v-12.651999473571777a5,5 0 0 1 5,-5z" style="stroke: rgb(51, 51, 51); fill: none; stroke-width: 1px;"/></g><g id="node-name-depthwise_conv2d" class="node graph-node" style="" transform="translate(9.175376892089844,193.92799758911133)"><g class="node-item node-item-type node-item-type-layer" transform="translate(0,0)"><path d="M5,0h93.3099136352539a5,5 0 0 1 5,5v17.651999473571777a0,0 0 0 1 0,0h-103.3099136352539a0,0 0 0 1 0,0v-17.651999473571777a5,5 0 0 1 5,-5z" style="stroke: rgb(0, 0, 0); fill: rgb(51, 85, 136); stroke-width: 0px;"/><text x="6" y="15.880000114440918" style="font-family: -apple-system, BlinkMacSystemFont, &quot;Segoe WPC&quot;, &quot;Segoe UI&quot;, &quot;Ubuntu&quot;, &quot;Droid Sans&quot;, sans-serif, &quot;PingFang SC&quot;; font-size: 11px; text-rendering: geometricprecision; user-select: none; fill: rgb(255, 255, 255);">DepthwiseConv2D</text><title>depthwise_conv2d</title></g><g class="node-item node-item-type node-item-type-activation" transform="translate(0,22.651999473571777)"><path d="M0,0h103.3099136352539a0,0 0 0 1 0,0v17.651999473571777a5,5 0 0 1 -5,5h-93.3099136352539a5,5 0 0 1 -5,-5v-17.651999473571777a0,0 0 0 1 0,0z" style="stroke: rgb(0, 0, 0); fill: rgb(112, 41, 33); stroke-width: 0px;"/><text x="6" y="15.880000114440918" style="font-family: -apple-system, BlinkMacSystemFont, &quot;Segoe WPC&quot;, &quot;Segoe UI&quot;, &quot;Ubuntu&quot;, &quot;Droid Sans&quot;, sans-serif, &quot;PingFang SC&quot;; font-size: 11px; text-rendering: geometricprecision; user-select: none; fill: rgb(255, 255, 255);">Activation</text></g><line class="node" x1="0" x2="103.3099136352539" y1="22.651999473571777" y2="22.651999473571777" style="stroke: rgb(51, 51, 51); fill: none; stroke-width: 1px;"/><path class="node node-border" d="M5,0h93.3099136352539a5,5 0 0 1 5,5v35.303998947143555a5,5 0 0 1 -5,5h-93.3099136352539a5,5 0 0 1 -5,-5v-35.303998947143555a5,5 0 0 1 5,-5z" style="stroke: rgb(51, 51, 51); fill: none; stroke-width: 1px;"/></g><g id="node-name-batch_normalization_1" class="node graph-node" style="" transform="translate(6.098583221435547,259.2319965362549)"><g class="node-item node-item-type node-item-type-normalization" transform="translate(0,0)"><path d="M5,0h99.4635009765625a5,5 0 0 1 5,5v12.651999473571777a5,5 0 0 1 -5,5h-99.4635009765625a5,5 0 0 1 -5,-5v-12.651999473571777a5,5 0 0 1 5,-5z" style="stroke: rgb(0, 0, 0); fill: rgb(51, 85, 68); stroke-width: 0px;"/><text x="6" y="15.880000114440918" style="font-family: -apple-system, BlinkMacSystemFont, &quot;Segoe WPC&quot;, &quot;Segoe UI&quot;, &quot;Ubuntu&quot;, &quot;Droid Sans&quot;, sans-serif, &quot;PingFang SC&quot;; font-size: 11px; text-rendering: geometricprecision; user-select: none; fill: rgb(255, 255, 255);">BatchNormalization</text><title>batch_normalization_1</title></g><path class="node node-border" d="M5,0h99.4635009765625a5,5 0 0 1 5,5v12.651999473571777a5,5 0 0 1 -5,5h-99.4635009765625a5,5 0 0 1 -5,-5v-12.651999473571777a5,5 0 0 1 5,-5z" style="stroke: rgb(51, 51, 51); fill: none; stroke-width: 1px;"/></g><g id="node-name-conv2d_1" class="node graph-node" style="" transform="translate(29.58358383178711,301.88399600982666)"><g class="node-item node-item-type node-item-type-layer" transform="translate(0,0)"><path d="M5,0h52.493499755859375a5,5 0 0 1 5,5v17.651999473571777a0,0 0 0 1 0,0h-62.493499755859375a0,0 0 0 1 0,0v-17.651999473571777a5,5 0 0 1 5,-5z" style="stroke: rgb(0, 0, 0); fill: rgb(51, 85, 136); stroke-width: 0px;"/><text x="6" y="15.880000114440918" style="font-family: -apple-system, BlinkMacSystemFont, &quot;Segoe WPC&quot;, &quot;Segoe UI&quot;, &quot;Ubuntu&quot;, &quot;Droid Sans&quot;, sans-serif, &quot;PingFang SC&quot;; font-size: 11px; text-rendering: geometricprecision; user-select: none; fill: rgb(255, 255, 255);">Conv2D</text><title>conv2d_1</title></g><g class="node-item node-item-type node-item-type-activation" transform="translate(0,22.651999473571777)"><path d="M0,0h62.493499755859375a0,0 0 0 1 0,0v17.651999473571777a5,5 0 0 1 -5,5h-52.493499755859375a5,5 0 0 1 -5,-5v-17.651999473571777a0,0 0 0 1 0,0z" style="stroke: rgb(0, 0, 0); fill: rgb(112, 41, 33); stroke-width: 0px;"/><text x="6" y="15.880000114440918" style="font-family: -apple-system, BlinkMacSystemFont, &quot;Segoe WPC&quot;, &quot;Segoe UI&quot;, &quot;Ubuntu&quot;, &quot;Droid Sans&quot;, sans-serif, &quot;PingFang SC&quot;; font-size: 11px; text-rendering: geometricprecision; user-select: none; fill: rgb(255, 255, 255);">Activation</text></g><line class="node" x1="0" x2="62.493499755859375" y1="22.651999473571777" y2="22.651999473571777" style="stroke: rgb(51, 51, 51); fill: none; stroke-width: 1px;"/><path class="node node-border" d="M5,0h52.493499755859375a5,5 0 0 1 5,5v35.303998947143555a5,5 0 0 1 -5,5h-52.493499755859375a5,5 0 0 1 -5,-5v-35.303998947143555a5,5 0 0 1 5,-5z" style="stroke: rgb(51, 51, 51); fill: none; stroke-width: 1px;"/></g><g id="node-name-max_pooling2d" class="node graph-node" style="" transform="translate(18.41170883178711,367.1879949569702)"><g class="node-item node-item-type node-item-type-pool" transform="translate(0,0)"><path d="M5,0h74.83724975585938a5,5 0 0 1 5,5v12.651999473571777a5,5 0 0 1 -5,5h-74.83724975585938a5,5 0 0 1 -5,-5v-12.651999473571777a5,5 0 0 1 5,-5z" style="stroke: rgb(0, 0, 0); fill: rgb(51, 85, 51); stroke-width: 0px;"/><text x="6" y="15.880000114440918" style="font-family: -apple-system, BlinkMacSystemFont, &quot;Segoe WPC&quot;, &quot;Segoe UI&quot;, &quot;Ubuntu&quot;, &quot;Droid Sans&quot;, sans-serif, &quot;PingFang SC&quot;; font-size: 11px; text-rendering: geometricprecision; user-select: none; fill: rgb(255, 255, 255);">MaxPooling2D</text><title>max_pooling2d</title></g><path class="node node-border" d="M5,0h74.83724975585938a5,5 0 0 1 5,5v12.651999473571777a5,5 0 0 1 -5,5h-74.83724975585938a5,5 0 0 1 -5,-5v-12.651999473571777a5,5 0 0 1 5,-5z" style="stroke: rgb(51, 51, 51); fill: none; stroke-width: 1px;"/></g><g id="node-name-conv2d_2" class="node graph-node" style="" transform="translate(29.58358383178711,409.839994430542)"><g class="node-item node-item-type node-item-type-layer" transform="translate(0,0)"><path d="M5,0h52.493499755859375a5,5 0 0 1 5,5v17.651999473571777a0,0 0 0 1 0,0h-62.493499755859375a0,0 0 0 1 0,0v-17.651999473571777a5,5 0 0 1 5,-5z" style="stroke: rgb(0, 0, 0); fill: rgb(51, 85, 136); stroke-width: 0px;"/><text x="6" y="15.880000114440918" style="font-family: -apple-system, BlinkMacSystemFont, &quot;Segoe WPC&quot;, &quot;Segoe UI&quot;, &quot;Ubuntu&quot;, &quot;Droid Sans&quot;, sans-serif, &quot;PingFang SC&quot;; font-size: 11px; text-rendering: geometricprecision; user-select: none; fill: rgb(255, 255, 255);">Conv2D</text><title>conv2d_2</title></g><g class="node-item node-item-type node-item-type-activation" transform="translate(0,22.651999473571777)"><path d="M0,0h62.493499755859375a0,0 0 0 1 0,0v17.651999473571777a5,5 0 0 1 -5,5h-52.493499755859375a5,5 0 0 1 -5,-5v-17.651999473571777a0,0 0 0 1 0,0z" style="stroke: rgb(0, 0, 0); fill: rgb(112, 41, 33); stroke-width: 0px;"/><text x="6" y="15.880000114440918" style="font-family: -apple-system, BlinkMacSystemFont, &quot;Segoe WPC&quot;, &quot;Segoe UI&quot;, &quot;Ubuntu&quot;, &quot;Droid Sans&quot;, sans-serif, &quot;PingFang SC&quot;; font-size: 11px; text-rendering: geometricprecision; user-select: none; fill: rgb(255, 255, 255);">Activation</text></g><line class="node" x1="0" x2="62.493499755859375" y1="22.651999473571777" y2="22.651999473571777" style="stroke: rgb(51, 51, 51); fill: none; stroke-width: 1px;"/><path class="node node-border" d="M5,0h52.493499755859375a5,5 0 0 1 5,5v35.303998947143555a5,5 0 0 1 -5,5h-52.493499755859375a5,5 0 0 1 -5,-5v-35.303998947143555a5,5 0 0 1 5,-5z" style="stroke: rgb(51, 51, 51); fill: none; stroke-width: 1px;"/></g><g id="node-name-batch_normalization_2" class="node graph-node" style="" transform="translate(6.098583221435547,475.14399337768555)"><g class="node-item node-item-type node-item-type-normalization" transform="translate(0,0)"><path d="M5,0h99.4635009765625a5,5 0 0 1 5,5v12.651999473571777a5,5 0 0 1 -5,5h-99.4635009765625a5,5 0 0 1 -5,-5v-12.651999473571777a5,5 0 0 1 5,-5z" style="stroke: rgb(0, 0, 0); fill: rgb(51, 85, 68); stroke-width: 0px;"/><text x="6" y="15.880000114440918" style="font-family: -apple-system, BlinkMacSystemFont, &quot;Segoe WPC&quot;, &quot;Segoe UI&quot;, &quot;Ubuntu&quot;, &quot;Droid Sans&quot;, sans-serif, &quot;PingFang SC&quot;; font-size: 11px; text-rendering: geometricprecision; user-select: none; fill: rgb(255, 255, 255);">BatchNormalization</text><title>batch_normalization_2</title></g><path class="node node-border" d="M5,0h99.4635009765625a5,5 0 0 1 5,5v12.651999473571777a5,5 0 0 1 -5,5h-99.4635009765625a5,5 0 0 1 -5,-5v-12.651999473571777a5,5 0 0 1 5,-5z" style="stroke: rgb(51, 51, 51); fill: none; stroke-width: 1px;"/></g><g id="node-name-depthwise_conv2d_1" class="node graph-node" style="" transform="translate(9.175376892089844,517.7959928512573)"><g class="node-item node-item-type node-item-type-layer" transform="translate(0,0)"><path d="M5,0h93.3099136352539a5,5 0 0 1 5,5v17.651999473571777a0,0 0 0 1 0,0h-103.3099136352539a0,0 0 0 1 0,0v-17.651999473571777a5,5 0 0 1 5,-5z" style="stroke: rgb(0, 0, 0); fill: rgb(51, 85, 136); stroke-width: 0px;"/><text x="6" y="15.880000114440918" style="font-family: -apple-system, BlinkMacSystemFont, &quot;Segoe WPC&quot;, &quot;Segoe UI&quot;, &quot;Ubuntu&quot;, &quot;Droid Sans&quot;, sans-serif, &quot;PingFang SC&quot;; font-size: 11px; text-rendering: geometricprecision; user-select: none; fill: rgb(255, 255, 255);">DepthwiseConv2D</text><title>depthwise_conv2d_1</title></g><g class="node-item node-item-type node-item-type-activation" transform="translate(0,22.651999473571777)"><path d="M0,0h103.3099136352539a0,0 0 0 1 0,0v17.651999473571777a5,5 0 0 1 -5,5h-93.3099136352539a5,5 0 0 1 -5,-5v-17.651999473571777a0,0 0 0 1 0,0z" style="stroke: rgb(0, 0, 0); fill: rgb(112, 41, 33); stroke-width: 0px;"/><text x="6" y="15.880000114440918" style="font-family: -apple-system, BlinkMacSystemFont, &quot;Segoe WPC&quot;, &quot;Segoe UI&quot;, &quot;Ubuntu&quot;, &quot;Droid Sans&quot;, sans-serif, &quot;PingFang SC&quot;; font-size: 11px; text-rendering: geometricprecision; user-select: none; fill: rgb(255, 255, 255);">Activation</text></g><line class="node" x1="0" x2="103.3099136352539" y1="22.651999473571777" y2="22.651999473571777" style="stroke: rgb(51, 51, 51); fill: none; stroke-width: 1px;"/><path class="node node-border" d="M5,0h93.3099136352539a5,5 0 0 1 5,5v35.303998947143555a5,5 0 0 1 -5,5h-93.3099136352539a5,5 0 0 1 -5,-5v-35.303998947143555a5,5 0 0 1 5,-5z" style="stroke: rgb(51, 51, 51); fill: none; stroke-width: 1px;"/></g><g id="node-name-batch_normalization_3" class="node graph-node" style="" transform="translate(6.098583221435547,583.0999917984009)"><g class="node-item node-item-type node-item-type-normalization" transform="translate(0,0)"><path d="M5,0h99.4635009765625a5,5 0 0 1 5,5v12.651999473571777a5,5 0 0 1 -5,5h-99.4635009765625a5,5 0 0 1 -5,-5v-12.651999473571777a5,5 0 0 1 5,-5z" style="stroke: rgb(0, 0, 0); fill: rgb(51, 85, 68); stroke-width: 0px;"/><text x="6" y="15.880000114440918" style="font-family: -apple-system, BlinkMacSystemFont, &quot;Segoe WPC&quot;, &quot;Segoe UI&quot;, &quot;Ubuntu&quot;, &quot;Droid Sans&quot;, sans-serif, &quot;PingFang SC&quot;; font-size: 11px; text-rendering: geometricprecision; user-select: none; fill: rgb(255, 255, 255);">BatchNormalization</text><title>batch_normalization_3</title></g><path class="node node-border" d="M5,0h99.4635009765625a5,5 0 0 1 5,5v12.651999473571777a5,5 0 0 1 -5,5h-99.4635009765625a5,5 0 0 1 -5,-5v-12.651999473571777a5,5 0 0 1 5,-5z" style="stroke: rgb(51, 51, 51); fill: none; stroke-width: 1px;"/></g><g id="node-name-conv2d_3" class="node graph-node" style="" transform="translate(29.58358383178711,625.7519912719727)"><g class="node-item node-item-type node-item-type-layer" transform="translate(0,0)"><path d="M5,0h52.493499755859375a5,5 0 0 1 5,5v17.651999473571777a0,0 0 0 1 0,0h-62.493499755859375a0,0 0 0 1 0,0v-17.651999473571777a5,5 0 0 1 5,-5z" style="stroke: rgb(0, 0, 0); fill: rgb(51, 85, 136); stroke-width: 0px;"/><text x="6" y="15.880000114440918" style="font-family: -apple-system, BlinkMacSystemFont, &quot;Segoe WPC&quot;, &quot;Segoe UI&quot;, &quot;Ubuntu&quot;, &quot;Droid Sans&quot;, sans-serif, &quot;PingFang SC&quot;; font-size: 11px; text-rendering: geometricprecision; user-select: none; fill: rgb(255, 255, 255);">Conv2D</text><title>conv2d_3</title></g><g class="node-item node-item-type node-item-type-activation" transform="translate(0,22.651999473571777)"><path d="M0,0h62.493499755859375a0,0 0 0 1 0,0v17.651999473571777a5,5 0 0 1 -5,5h-52.493499755859375a5,5 0 0 1 -5,-5v-17.651999473571777a0,0 0 0 1 0,0z" style="stroke: rgb(0, 0, 0); fill: rgb(112, 41, 33); stroke-width: 0px;"/><text x="6" y="15.880000114440918" style="font-family: -apple-system, BlinkMacSystemFont, &quot;Segoe WPC&quot;, &quot;Segoe UI&quot;, &quot;Ubuntu&quot;, &quot;Droid Sans&quot;, sans-serif, &quot;PingFang SC&quot;; font-size: 11px; text-rendering: geometricprecision; user-select: none; fill: rgb(255, 255, 255);">Activation</text></g><line class="node" x1="0" x2="62.493499755859375" y1="22.651999473571777" y2="22.651999473571777" style="stroke: rgb(51, 51, 51); fill: none; stroke-width: 1px;"/><path class="node node-border" d="M5,0h52.493499755859375a5,5 0 0 1 5,5v35.303998947143555a5,5 0 0 1 -5,5h-52.493499755859375a5,5 0 0 1 -5,-5v-35.303998947143555a5,5 0 0 1 5,-5z" style="stroke: rgb(51, 51, 51); fill: none; stroke-width: 1px;"/></g><g id="node-name-max_pooling2d_1" class="node graph-node" style="" transform="translate(18.41170883178711,691.0559902191162)"><g class="node-item node-item-type node-item-type-pool" transform="translate(0,0)"><path d="M5,0h74.83724975585938a5,5 0 0 1 5,5v12.651999473571777a5,5 0 0 1 -5,5h-74.83724975585938a5,5 0 0 1 -5,-5v-12.651999473571777a5,5 0 0 1 5,-5z" style="stroke: rgb(0, 0, 0); fill: rgb(51, 85, 51); stroke-width: 0px;"/><text x="6" y="15.880000114440918" style="font-family: -apple-system, BlinkMacSystemFont, &quot;Segoe WPC&quot;, &quot;Segoe UI&quot;, &quot;Ubuntu&quot;, &quot;Droid Sans&quot;, sans-serif, &quot;PingFang SC&quot;; font-size: 11px; text-rendering: geometricprecision; user-select: none; fill: rgb(255, 255, 255);">MaxPooling2D</text><title>max_pooling2d_1</title></g><path class="node node-border" d="M5,0h74.83724975585938a5,5 0 0 1 5,5v12.651999473571777a5,5 0 0 1 -5,5h-74.83724975585938a5,5 0 0 1 -5,-5v-12.651999473571777a5,5 0 0 1 5,-5z" style="stroke: rgb(51, 51, 51); fill: none; stroke-width: 1px;"/></g><g id="node-name-conv2d_4" class="node graph-node" style="" transform="translate(29.58358383178711,733.707989692688)"><g class="node-item node-item-type node-item-type-layer" transform="translate(0,0)"><path d="M5,0h52.493499755859375a5,5 0 0 1 5,5v17.651999473571777a0,0 0 0 1 0,0h-62.493499755859375a0,0 0 0 1 0,0v-17.651999473571777a5,5 0 0 1 5,-5z" style="stroke: rgb(0, 0, 0); fill: rgb(51, 85, 136); stroke-width: 0px;"/><text x="6" y="15.880000114440918" style="font-family: -apple-system, BlinkMacSystemFont, &quot;Segoe WPC&quot;, &quot;Segoe UI&quot;, &quot;Ubuntu&quot;, &quot;Droid Sans&quot;, sans-serif, &quot;PingFang SC&quot;; font-size: 11px; text-rendering: geometricprecision; user-select: none; fill: rgb(255, 255, 255);">Conv2D</text><title>conv2d_4</title></g><g class="node-item node-item-type node-item-type-activation" transform="translate(0,22.651999473571777)"><path d="M0,0h62.493499755859375a0,0 0 0 1 0,0v17.651999473571777a5,5 0 0 1 -5,5h-52.493499755859375a5,5 0 0 1 -5,-5v-17.651999473571777a0,0 0 0 1 0,0z" style="stroke: rgb(0, 0, 0); fill: rgb(112, 41, 33); stroke-width: 0px;"/><text x="6" y="15.880000114440918" style="font-family: -apple-system, BlinkMacSystemFont, &quot;Segoe WPC&quot;, &quot;Segoe UI&quot;, &quot;Ubuntu&quot;, &quot;Droid Sans&quot;, sans-serif, &quot;PingFang SC&quot;; font-size: 11px; text-rendering: geometricprecision; user-select: none; fill: rgb(255, 255, 255);">Activation</text></g><line class="node" x1="0" x2="62.493499755859375" y1="22.651999473571777" y2="22.651999473571777" style="stroke: rgb(51, 51, 51); fill: none; stroke-width: 1px;"/><path class="node node-border" d="M5,0h52.493499755859375a5,5 0 0 1 5,5v35.303998947143555a5,5 0 0 1 -5,5h-52.493499755859375a5,5 0 0 1 -5,-5v-35.303998947143555a5,5 0 0 1 5,-5z" style="stroke: rgb(51, 51, 51); fill: none; stroke-width: 1px;"/></g><g id="node-name-batch_normalization_4" class="node graph-node" style="" transform="translate(6.098583221435547,799.0119886398315)"><g class="node-item node-item-type node-item-type-normalization" transform="translate(0,0)"><path d="M5,0h99.4635009765625a5,5 0 0 1 5,5v12.651999473571777a5,5 0 0 1 -5,5h-99.4635009765625a5,5 0 0 1 -5,-5v-12.651999473571777a5,5 0 0 1 5,-5z" style="stroke: rgb(0, 0, 0); fill: rgb(51, 85, 68); stroke-width: 0px;"/><text x="6" y="15.880000114440918" style="font-family: -apple-system, BlinkMacSystemFont, &quot;Segoe WPC&quot;, &quot;Segoe UI&quot;, &quot;Ubuntu&quot;, &quot;Droid Sans&quot;, sans-serif, &quot;PingFang SC&quot;; font-size: 11px; text-rendering: geometricprecision; user-select: none; fill: rgb(255, 255, 255);">BatchNormalization</text><title>batch_normalization_4</title></g><path class="node node-border" d="M5,0h99.4635009765625a5,5 0 0 1 5,5v12.651999473571777a5,5 0 0 1 -5,5h-99.4635009765625a5,5 0 0 1 -5,-5v-12.651999473571777a5,5 0 0 1 5,-5z" style="stroke: rgb(51, 51, 51); fill: none; stroke-width: 1px;"/></g><g id="node-name-depthwise_conv2d_2" class="node graph-node" style="" transform="translate(9.175376892089844,841.6639881134033)"><g class="node-item node-item-type node-item-type-layer" transform="translate(0,0)"><path d="M5,0h93.3099136352539a5,5 0 0 1 5,5v17.651999473571777a0,0 0 0 1 0,0h-103.3099136352539a0,0 0 0 1 0,0v-17.651999473571777a5,5 0 0 1 5,-5z" style="stroke: rgb(0, 0, 0); fill: rgb(51, 85, 136); stroke-width: 0px;"/><text x="6" y="15.880000114440918" style="font-family: -apple-system, BlinkMacSystemFont, &quot;Segoe WPC&quot;, &quot;Segoe UI&quot;, &quot;Ubuntu&quot;, &quot;Droid Sans&quot;, sans-serif, &quot;PingFang SC&quot;; font-size: 11px; text-rendering: geometricprecision; user-select: none; fill: rgb(255, 255, 255);">DepthwiseConv2D</text><title>depthwise_conv2d_2</title></g><g class="node-item node-item-type node-item-type-activation" transform="translate(0,22.651999473571777)"><path d="M0,0h103.3099136352539a0,0 0 0 1 0,0v17.651999473571777a5,5 0 0 1 -5,5h-93.3099136352539a5,5 0 0 1 -5,-5v-17.651999473571777a0,0 0 0 1 0,0z" style="stroke: rgb(0, 0, 0); fill: rgb(112, 41, 33); stroke-width: 0px;"/><text x="6" y="15.880000114440918" style="font-family: -apple-system, BlinkMacSystemFont, &quot;Segoe WPC&quot;, &quot;Segoe UI&quot;, &quot;Ubuntu&quot;, &quot;Droid Sans&quot;, sans-serif, &quot;PingFang SC&quot;; font-size: 11px; text-rendering: geometricprecision; user-select: none; fill: rgb(255, 255, 255);">Activation</text></g><line class="node" x1="0" x2="103.3099136352539" y1="22.651999473571777" y2="22.651999473571777" style="stroke: rgb(51, 51, 51); fill: none; stroke-width: 1px;"/><path class="node node-border" d="M5,0h93.3099136352539a5,5 0 0 1 5,5v35.303998947143555a5,5 0 0 1 -5,5h-93.3099136352539a5,5 0 0 1 -5,-5v-35.303998947143555a5,5 0 0 1 5,-5z" style="stroke: rgb(51, 51, 51); fill: none; stroke-width: 1px;"/></g><g id="node-name-batch_normalization_5" class="node graph-node" style="" transform="translate(6.098583221435547,906.9679870605469)"><g class="node-item node-item-type node-item-type-normalization" transform="translate(0,0)"><path d="M5,0h99.4635009765625a5,5 0 0 1 5,5v12.651999473571777a5,5 0 0 1 -5,5h-99.4635009765625a5,5 0 0 1 -5,-5v-12.651999473571777a5,5 0 0 1 5,-5z" style="stroke: rgb(0, 0, 0); fill: rgb(51, 85, 68); stroke-width: 0px;"/><text x="6" y="15.880000114440918" style="font-family: -apple-system, BlinkMacSystemFont, &quot;Segoe WPC&quot;, &quot;Segoe UI&quot;, &quot;Ubuntu&quot;, &quot;Droid Sans&quot;, sans-serif, &quot;PingFang SC&quot;; font-size: 11px; text-rendering: geometricprecision; user-select: none; fill: rgb(255, 255, 255);">BatchNormalization</text><title>batch_normalization_5</title></g><path class="node node-border" d="M5,0h99.4635009765625a5,5 0 0 1 5,5v12.651999473571777a5,5 0 0 1 -5,5h-99.4635009765625a5,5 0 0 1 -5,-5v-12.651999473571777a5,5 0 0 1 5,-5z" style="stroke: rgb(51, 51, 51); fill: none; stroke-width: 1px;"/></g><g id="node-name-conv2d_5" class="node graph-node" style="" transform="translate(29.58358383178711,949.6199865341187)"><g class="node-item node-item-type node-item-type-layer" transform="translate(0,0)"><path d="M5,0h52.493499755859375a5,5 0 0 1 5,5v17.651999473571777a0,0 0 0 1 0,0h-62.493499755859375a0,0 0 0 1 0,0v-17.651999473571777a5,5 0 0 1 5,-5z" style="stroke: rgb(0, 0, 0); fill: rgb(51, 85, 136); stroke-width: 0px;"/><text x="6" y="15.880000114440918" style="font-family: -apple-system, BlinkMacSystemFont, &quot;Segoe WPC&quot;, &quot;Segoe UI&quot;, &quot;Ubuntu&quot;, &quot;Droid Sans&quot;, sans-serif, &quot;PingFang SC&quot;; font-size: 11px; text-rendering: geometricprecision; user-select: none; fill: rgb(255, 255, 255);">Conv2D</text><title>conv2d_5</title></g><g class="node-item node-item-type node-item-type-activation" transform="translate(0,22.651999473571777)"><path d="M0,0h62.493499755859375a0,0 0 0 1 0,0v17.651999473571777a5,5 0 0 1 -5,5h-52.493499755859375a5,5 0 0 1 -5,-5v-17.651999473571777a0,0 0 0 1 0,0z" style="stroke: rgb(0, 0, 0); fill: rgb(112, 41, 33); stroke-width: 0px;"/><text x="6" y="15.880000114440918" style="font-family: -apple-system, BlinkMacSystemFont, &quot;Segoe WPC&quot;, &quot;Segoe UI&quot;, &quot;Ubuntu&quot;, &quot;Droid Sans&quot;, sans-serif, &quot;PingFang SC&quot;; font-size: 11px; text-rendering: geometricprecision; user-select: none; fill: rgb(255, 255, 255);">Activation</text></g><line class="node" x1="0" x2="62.493499755859375" y1="22.651999473571777" y2="22.651999473571777" style="stroke: rgb(51, 51, 51); fill: none; stroke-width: 1px;"/><path class="node node-border" d="M5,0h52.493499755859375a5,5 0 0 1 5,5v35.303998947143555a5,5 0 0 1 -5,5h-52.493499755859375a5,5 0 0 1 -5,-5v-35.303998947143555a5,5 0 0 1 5,-5z" style="stroke: rgb(51, 51, 51); fill: none; stroke-width: 1px;"/></g><g id="node-name-global_average_pooling2d" class="node graph-node" style="" transform="translate(0,1014.9239854812622)"><g class="node-item node-item-type node-item-type-pool" transform="translate(0,0)"><path d="M5,0h111.6606674194336a5,5 0 0 1 5,5v12.651999473571777a5,5 0 0 1 -5,5h-111.6606674194336a5,5 0 0 1 -5,-5v-12.651999473571777a5,5 0 0 1 5,-5z" style="stroke: rgb(0, 0, 0); fill: rgb(51, 85, 51); stroke-width: 0px;"/><text x="6" y="15.880000114440918" style="font-family: -apple-system, BlinkMacSystemFont, &quot;Segoe WPC&quot;, &quot;Segoe UI&quot;, &quot;Ubuntu&quot;, &quot;Droid Sans&quot;, sans-serif, &quot;PingFang SC&quot;; font-size: 11px; text-rendering: geometricprecision; user-select: none; fill: rgb(255, 255, 255);">GlobalAve…Pooling2D</text><title>global_average_pooling2d</title></g><path class="node node-border" d="M5,0h111.6606674194336a5,5 0 0 1 5,5v12.651999473571777a5,5 0 0 1 -5,5h-111.6606674194336a5,5 0 0 1 -5,-5v-12.651999473571777a5,5 0 0 1 5,-5z" style="stroke: rgb(51, 51, 51); fill: none; stroke-width: 1px;"/></g><g id="node-name-dense" class="node graph-node" style="" transform="translate(29.58358383178711,1057.575984954834)"><g class="node-item node-item-type node-item-type-layer" transform="translate(0,0)"><path d="M5,0h52.493499755859375a5,5 0 0 1 5,5v17.651999473571777a0,0 0 0 1 0,0h-62.493499755859375a0,0 0 0 1 0,0v-17.651999473571777a5,5 0 0 1 5,-5z" style="stroke: rgb(0, 0, 0); fill: rgb(51, 85, 136); stroke-width: 0px;"/><text x="6" y="15.880000114440918" style="font-family: -apple-system, BlinkMacSystemFont, &quot;Segoe WPC&quot;, &quot;Segoe UI&quot;, &quot;Ubuntu&quot;, &quot;Droid Sans&quot;, sans-serif, &quot;PingFang SC&quot;; font-size: 11px; text-rendering: geometricprecision; user-select: none; fill: rgb(255, 255, 255);">Dense</text><title>dense</title></g><g class="node-item node-item-type node-item-type-activation" transform="translate(0,22.651999473571777)"><path d="M0,0h62.493499755859375a0,0 0 0 1 0,0v17.651999473571777a5,5 0 0 1 -5,5h-52.493499755859375a5,5 0 0 1 -5,-5v-17.651999473571777a0,0 0 0 1 0,0z" style="stroke: rgb(0, 0, 0); fill: rgb(112, 41, 33); stroke-width: 0px;"/><text x="6" y="15.880000114440918" style="font-family: -apple-system, BlinkMacSystemFont, &quot;Segoe WPC&quot;, &quot;Segoe UI&quot;, &quot;Ubuntu&quot;, &quot;Droid Sans&quot;, sans-serif, &quot;PingFang SC&quot;; font-size: 11px; text-rendering: geometricprecision; user-select: none; fill: rgb(255, 255, 255);">Activation</text></g><line class="node" x1="0" x2="62.493499755859375" y1="22.651999473571777" y2="22.651999473571777" style="stroke: rgb(51, 51, 51); fill: none; stroke-width: 1px;"/><path class="node node-border" d="M5,0h52.493499755859375a5,5 0 0 1 5,5v35.303998947143555a5,5 0 0 1 -5,5h-52.493499755859375a5,5 0 0 1 -5,-5v-35.303998947143555a5,5 0 0 1 5,-5z" style="stroke: rgb(51, 51, 51); fill: none; stroke-width: 1px;"/></g><g id="node-name-dropout" class="node graph-node" style="" transform="translate(33.406999588012695,1122.8799839019775)"><g class="node-item node-item-type node-item-type-dropout" transform="translate(0,0)"><path d="M5,0h44.8466682434082a5,5 0 0 1 5,5v12.651999473571777a5,5 0 0 1 -5,5h-44.8466682434082a5,5 0 0 1 -5,-5v-12.651999473571777a5,5 0 0 1 5,-5z" style="stroke: rgb(0, 0, 0); fill: rgb(69, 71, 112); stroke-width: 0px;"/><text x="6" y="15.880000114440918" style="font-family: -apple-system, BlinkMacSystemFont, &quot;Segoe WPC&quot;, &quot;Segoe UI&quot;, &quot;Ubuntu&quot;, &quot;Droid Sans&quot;, sans-serif, &quot;PingFang SC&quot;; font-size: 11px; text-rendering: geometricprecision; user-select: none; fill: rgb(255, 255, 255);">Dropout</text><title>dropout</title></g><path class="node node-border" d="M5,0h44.8466682434082a5,5 0 0 1 5,5v12.651999473571777a5,5 0 0 1 -5,5h-44.8466682434082a5,5 0 0 1 -5,-5v-12.651999473571777a5,5 0 0 1 5,-5z" style="stroke: rgb(51, 51, 51); fill: none; stroke-width: 1px;"/></g><g id="node-name-dense_1" class="node graph-node" style="" transform="translate(29.58358383178711,1165.5319833755493)"><g class="node-item node-item-type node-item-type-layer" transform="translate(0,0)"><path d="M5,0h52.493499755859375a5,5 0 0 1 5,5v17.651999473571777a0,0 0 0 1 0,0h-62.493499755859375a0,0 0 0 1 0,0v-17.651999473571777a5,5 0 0 1 5,-5z" style="stroke: rgb(0, 0, 0); fill: rgb(51, 85, 136); stroke-width: 0px;"/><text x="6" y="15.880000114440918" style="font-family: -apple-system, BlinkMacSystemFont, &quot;Segoe WPC&quot;, &quot;Segoe UI&quot;, &quot;Ubuntu&quot;, &quot;Droid Sans&quot;, sans-serif, &quot;PingFang SC&quot;; font-size: 11px; text-rendering: geometricprecision; user-select: none; fill: rgb(255, 255, 255);">Dense</text><title>dense_1</title></g><g class="node-item node-item-type node-item-type-activation" transform="translate(0,22.651999473571777)"><path d="M0,0h62.493499755859375a0,0 0 0 1 0,0v17.651999473571777a5,5 0 0 1 -5,5h-52.493499755859375a5,5 0 0 1 -5,-5v-17.651999473571777a0,0 0 0 1 0,0z" style="stroke: rgb(0, 0, 0); fill: rgb(112, 41, 33); stroke-width: 0px;"/><text x="6" y="15.880000114440918" style="font-family: -apple-system, BlinkMacSystemFont, &quot;Segoe WPC&quot;, &quot;Segoe UI&quot;, &quot;Ubuntu&quot;, &quot;Droid Sans&quot;, sans-serif, &quot;PingFang SC&quot;; font-size: 11px; text-rendering: geometricprecision; user-select: none; fill: rgb(255, 255, 255);">Activation</text></g><line class="node" x1="0" x2="62.493499755859375" y1="22.651999473571777" y2="22.651999473571777" style="stroke: rgb(51, 51, 51); fill: none; stroke-width: 1px;"/><path class="node node-border" d="M5,0h52.493499755859375a5,5 0 0 1 5,5v35.303998947143555a5,5 0 0 1 -5,5h-52.493499755859375a5,5 0 0 1 -5,-5v-35.303998947143555a5,5 0 0 1 5,-5z" style="stroke: rgb(51, 51, 51); fill: none; stroke-width: 1px;"/></g><g class="node" style="" transform="translate(34.14583396911621,1230.8359823226929)"><g class="node-item graph-item-output" transform="translate(0,0)"><path d="M5,0h43.36899948120117a5,5 0 0 1 5,5v12.651999473571777a5,5 0 0 1 -5,5h-43.36899948120117a5,5 0 0 1 -5,-5v-12.651999473571777a5,5 0 0 1 5,-5z" style="stroke: rgb(0, 0, 0); fill: rgb(238, 238, 238); stroke-width: 0px;"/><text x="6" y="15.880000114440918" style="font-family: -apple-system, BlinkMacSystemFont, &quot;Segoe WPC&quot;, &quot;Segoe UI&quot;, &quot;Ubuntu&quot;, &quot;Droid Sans&quot;, sans-serif, &quot;PingFang SC&quot;; font-size: 11px; text-rendering: geometricprecision; user-select: none;">dense_1</text></g><path class="node node-border" d="M5,0h43.36899948120117a5,5 0 0 1 5,5v12.651999473571777a5,5 0 0 1 -5,5h-43.36899948120117a5,5 0 0 1 -5,-5v-12.651999473571777a5,5 0 0 1 5,-5z" style="stroke: rgb(51, 51, 51); fill: none; stroke-width: 1px;"/></g></g></g></svg>